@startuml


interface ChargingStationMediatorI {
    void addArrivedVehicle(Vehicle vehicle);
    double calcDeltaSocPerSlot();
    void chargeVehicles();
    void releaseChargedVehiclesAndAddFromQueue();
    Informer getInformer();
}

class ChargingStation {
    Queue<Vehicle> vehiclesInQueue;
    Informer informer;
}

note right of ChargingStation
 For ex does addArrivedVehicle() call vehiclesInQueue and
 the colleagues slots (list of Charging slot). When calling
 chargeVehicles(), a slot object will need to call
 calcDeltaSocPerSlot in its mediator.
 It is hande that all objects has access to the informer
end note

 class ChargingSlot<Colleague to station> {
    ChargingStationMediatorI mediator;

    boolean available;
    Vehicle occupVehicle;

    boolean isAvailable()
    boolean isOccupied()
    void parkVehicle(Vehicle vehicle)
    Vehicle getOccupVehicle()
    void chargeVehicle()
    void releaseVehicle()
    boolean isFullyCharged()
}

 class PowerSplitter <Colleague to station> {
    ChargingStationMediatorI mediator;

    double deltaSocPerSlot()
    }

class Informer {

    List<ChargingSlot> slots;
    Queue<Vehicle> vehiclesInQueue;
    double deltaSoCDepotMax;

     int nOccupiedSlots()
     boolean isAllSlotsOccupied()
     List<Double> getSocs()
     int nofSlots()
     int nofVehiclesInQueue()
    }


class Vehicle {
      String id;
      double soc;

      void  charge(double deltaSoc)
 }

ChargingStationMediatorI <|-- ChargingStation
ChargingStation <-- PowerSplitter
ChargingStation "1" *-d- "many" ChargingSlot

@enduml